<?xml version="1.0" encoding="UTF-8"?>
<svg id="Calque_1" data-name="Calque 1" xmlns="http://www.w3.org/2000/svg" viewBox="0 0 185.41 126.59">
  <defs>
    <style>
      .cls-1 {
        fill: #312783;
      }
    </style>
  </defs>
  <circle class="cls-1" cx="71.11" cy="1.13" r="1.13"/>
  <circle class="cls-1" cx="71.11" cy="8.33" r="1.13"/>
  <circle class="cls-1" cx="71.11" cy="15.53" r="1.13"/>
  <circle class="cls-1" cx="71.11" cy="22.73" r="1.13"/>
  <circle class="cls-1" cx="71.11" cy="29.93" r="1.13"/>
  <circle class="cls-1" cx="71.11" cy="37.13" r="1.13"/>
  <circle class="cls-1" cx="71.11" cy="44.33" r="1.13"/>
  <circle class="cls-1" cx="114.31" cy="1.13" r="1.13"/>
  <circle class="cls-1" cx="114.31" cy="8.33" r="1.13"/>
  <circle class="cls-1" cx="114.31" cy="15.53" r="1.13"/>
  <circle class="cls-1" cx="114.31" cy="22.73" r="1.13"/>
  <circle class="cls-1" cx="114.31" cy="29.93" r="1.13"/>
  <circle class="cls-1" cx="114.31" cy="37.13" r="1.13"/>
  <circle class="cls-1" cx="114.31" cy="44.33" r="1.13"/>
  <circle class="cls-1" cx="8.33" cy="81.77" r="1.13"/>
  <circle class="cls-1" cx="1.13" cy="81.77" r="1.13"/>
  <circle class="cls-1" cx="184.28" cy="81.77" r="1.13"/>
  <circle class="cls-1" cx="177.08" cy="81.77" r="1.13"/>
  <circle class="cls-1" cx="169.88" cy="81.77" r="1.13"/>
  <circle class="cls-1" cx="162.68" cy="81.77" r="1.13"/>
  <circle class="cls-1" cx="155.48" cy="81.77" r="1.13"/>
  <circle class="cls-1" cx="79.27" cy="125.46" r="1.13"/>
  <circle class="cls-1" cx="72.07" cy="125.46" r="1.13"/>
  <circle class="cls-1" cx="64.87" cy="125.46" r="1.13"/>
  <circle class="cls-1" cx="57.67" cy="125.46" r="1.13"/>
  <circle class="cls-1" cx="128.57" cy="125.46" r="1.13"/>
  <circle class="cls-1" cx="121.37" cy="125.46" r="1.13"/>
  <circle class="cls-1" cx="114.17" cy="125.46" r="1.13"/>
  <circle class="cls-1" cx="106.97" cy="125.46" r="1.13"/>
</svg>